<svg width="18" height="18" viewBox="0 0 18 18" fill="none" xmlns="http://www.w3.org/2000/svg">
<path d="M12.842 9.47025C12.8233 7.5705 14.3915 6.65925 14.4613 6.61425C13.58 5.32425 12.2075 5.148 11.7185 5.12775C10.5508 5.00925 9.43927 5.8155 8.84602 5.8155C8.25502 5.8155 7.34002 5.145 6.37102 5.163C5.09902 5.18175 3.92527 5.9025 3.26977 7.0425C1.94677 9.3375 2.93077 12.7387 4.22002 14.6002C4.85002 15.5115 5.60152 16.5352 6.58777 16.4977C7.53727 16.4602 7.89652 15.8835 9.04477 15.8835C10.193 15.8835 10.5163 16.4985 11.5213 16.4797C12.5435 16.4602 13.1908 15.5505 13.8163 14.637C14.54 13.5795 14.8378 12.5557 14.8558 12.5032C14.8333 12.4935 12.8623 11.7382 12.8428 9.4695L12.842 9.47025ZM10.9535 3.8955C11.477 3.26025 11.8303 2.379 11.7335 1.5C10.9798 1.53 10.0655 2.0025 9.52477 2.63625C9.03952 3.19875 8.61427 4.095 8.72827 4.95675C9.56977 5.02275 10.4293 4.52925 10.9535 3.8955Z" fill="white"/>
</svg>
