<svg width="20" height="20" viewBox="0 0 20 20" fill="none" xmlns="http://www.w3.org/2000/svg">
<path d="M7.40552 17.7778C8.09587 17.7778 8.65552 17.2182 8.65552 16.5278C8.65552 15.8375 8.09587 15.2778 7.40552 15.2778C6.71516 15.2778 6.15552 15.8375 6.15552 16.5278C6.15552 17.2182 6.71516 17.7778 7.40552 17.7778Z" fill="#444444"/>
<path d="M15 17.7778C15.6904 17.7778 16.25 17.2182 16.25 16.5278C16.25 15.8375 15.6904 15.2778 15 15.2778C14.3096 15.2778 13.75 15.8375 13.75 16.5278C13.75 17.2182 14.3096 17.7778 15 17.7778Z" fill="#444444"/>
<path d="M12.5389 3.88894C12.5136 3.70483 12.5006 3.51923 12.5 3.33339C12.5006 3.14754 12.5136 2.96195 12.5389 2.77783H6.3833L6.74441 3.88894H12.5389Z" fill="#444444"/>
<path d="M16.6668 7.49997H16.4334L15.739 10.5555H7.40566L4.86677 2.51663C4.83931 2.43133 4.79162 2.35394 4.72777 2.29106C4.66392 2.22818 4.58581 2.18168 4.5001 2.15552L2.22232 1.45552C2.15229 1.434 2.07869 1.42648 2.00575 1.4334C1.93281 1.44032 1.86194 1.46154 1.7972 1.49584C1.66644 1.56513 1.56857 1.68352 1.5251 1.82497C1.48164 1.96641 1.49614 2.11934 1.56542 2.25009C1.63471 2.38085 1.7531 2.47872 1.89455 2.52219L3.88899 3.1333L6.43899 11.1889L5.52788 11.9333L5.45566 12.0055C5.23029 12.2652 5.10255 12.5954 5.09443 12.9392C5.08632 13.283 5.19835 13.6188 5.41121 13.8889C5.56264 14.073 5.75505 14.2192 5.97307 14.3156C6.19109 14.4121 6.42865 14.4562 6.66677 14.4444H15.939C16.0863 14.4444 16.2276 14.3859 16.3318 14.2817C16.436 14.1775 16.4945 14.0362 16.4945 13.8889C16.4945 13.7415 16.436 13.6002 16.3318 13.496C16.2276 13.3918 16.0863 13.3333 15.939 13.3333H6.57788C6.51391 13.3311 6.45158 13.3125 6.39691 13.2792C6.34225 13.2459 6.2971 13.199 6.26582 13.1432C6.23455 13.0873 6.2182 13.0243 6.21837 12.9603C6.21853 12.8963 6.2352 12.8334 6.26677 12.7777L7.60566 11.6666H16.1834C16.3119 11.6698 16.4374 11.6283 16.5387 11.5493C16.64 11.4703 16.7108 11.3586 16.739 11.2333L17.6112 7.39441C17.3014 7.46545 16.9846 7.50087 16.6668 7.49997Z" fill="#444444"/>
<path d="M16.6667 6.1111C18.2008 6.1111 19.4445 4.86744 19.4445 3.33332C19.4445 1.7992 18.2008 0.555542 16.6667 0.555542C15.1326 0.555542 13.8889 1.7992 13.8889 3.33332C13.8889 4.86744 15.1326 6.1111 16.6667 6.1111Z" fill="#FE3A30"/>
</svg>
