<svg width="17" height="17" viewBox="0 0 17 17" fill="none" xmlns="http://www.w3.org/2000/svg">
<path d="M7.08325 1.41663C10.1525 1.41663 16.2916 2.12496 16.2916 8.49996C16.2916 14.875 10.1525 15.5833 7.08325 15.5833" fill="#EAC55D"/>
<path d="M7.08325 1.41663C10.1525 1.41663 16.2916 2.12496 16.2916 8.49996C16.2916 14.875 10.1525 15.5833 7.08325 15.5833" stroke="#444444"/>
<path d="M7.43709 15.5833C3.72068 15.5833 0.707927 12.412 0.707927 8.49996C0.707927 4.58794 3.72068 1.41663 7.43709 1.41663C11.1535 1.41663 14.1663 4.58794 14.1663 8.49996C14.1663 12.412 11.1535 15.5833 7.43709 15.5833Z" fill="#EAC55D" stroke="#444444" stroke-linecap="round" stroke-linejoin="round"/>
<path d="M9.20801 6.23329C8.75718 5.86772 8.19468 5.66772 7.61426 5.66663C6.1473 5.66663 4.95801 6.93454 4.95801 8.49996C4.95801 10.0654 6.1473 11.3333 7.61426 11.3333C8.21209 11.3333 8.76388 11.1222 9.20801 10.7666" stroke="#444444" stroke-linecap="round" stroke-linejoin="round"/>
</svg>
