<svg width="22" height="22" viewBox="0 0 22 22" fill="none" xmlns="http://www.w3.org/2000/svg">
<path d="M18.6207 14.8928C17.6406 13.857 16.4596 13.0319 15.1499 12.468C13.8401 11.9042 12.4291 11.6133 11.0032 11.6133C9.57719 11.6133 8.1662 11.9042 6.85645 12.468C5.54669 13.0319 4.3657 13.857 3.38567 14.8928C3.17319 15.1197 3.05518 15.4191 3.05567 15.73V18.9445C3.05567 19.2686 3.18443 19.5795 3.41365 19.8087C3.64286 20.0379 3.95373 20.1667 4.27789 20.1667H17.7223C18.0465 20.1667 18.3574 20.0379 18.5866 19.8087C18.8158 19.5795 18.9446 19.2686 18.9446 18.9445V15.73C18.9467 15.42 18.8309 15.1207 18.6207 14.8928ZM17.7223 18.9445H4.27789V15.7239C5.14397 14.8119 6.18656 14.0857 7.34222 13.5895C8.49787 13.0932 9.74241 12.8373 11.0001 12.8373C12.2578 12.8373 13.5023 13.0932 14.658 13.5895C15.8137 14.0857 16.8562 14.8119 17.7223 15.7239V18.9445Z" fill="#C32334"/>
<path d="M11 10.3889C11.9925 10.3883 12.9538 10.0426 13.7195 9.41108H13.585C13.0893 9.4028 12.6102 9.23092 12.2222 8.92219C11.7226 9.13728 11.1747 9.2151 10.635 9.14764C10.0953 9.08018 9.58334 8.86987 9.15207 8.53844C8.7208 8.207 8.38581 7.76646 8.18171 7.26229C7.9776 6.75812 7.91177 6.20861 7.99102 5.67049C8.07027 5.13238 8.29172 4.62518 8.6325 4.20125C8.97329 3.77733 9.42105 3.45206 9.92956 3.25902C10.4381 3.06599 10.9889 3.01219 11.5251 3.10319C12.0614 3.19418 12.5636 3.42667 12.98 3.77664L13.5911 2.70108C13.0504 2.29151 12.42 2.01641 11.752 1.89847C11.084 1.78053 10.3975 1.82314 9.74926 2.02278C9.10097 2.22241 8.50945 2.57336 8.02352 3.04665C7.53759 3.51994 7.17118 4.10201 6.95452 4.74481C6.73787 5.38762 6.67719 6.07273 6.77749 6.7436C6.87779 7.41448 7.13619 8.05188 7.53137 8.60321C7.92654 9.15455 8.44717 9.604 9.05028 9.91448C9.65338 10.225 10.3217 10.3876 11 10.3889Z" fill="#C32334"/>
<path d="M16.4084 0.696682L12.9129 6.72224C12.8315 6.84161 12.7849 6.98116 12.778 7.12543C12.7711 7.26971 12.8043 7.41307 12.8739 7.53963C12.9435 7.66619 13.0468 7.771 13.1724 7.84246C13.2979 7.91391 13.4407 7.94922 13.5851 7.94446H20.5823C20.7267 7.94922 20.8695 7.91391 20.9951 7.84246C21.1206 7.771 21.2239 7.66619 21.2935 7.53963C21.3631 7.41307 21.3963 7.26971 21.3894 7.12543C21.3826 6.98116 21.3359 6.84161 21.2545 6.72224L17.759 0.696682C17.69 0.578771 17.5914 0.480966 17.473 0.412997C17.3545 0.345029 17.2203 0.309265 17.0837 0.309265C16.9471 0.309265 16.8129 0.345029 16.6944 0.412997C16.576 0.480966 16.4774 0.578771 16.4084 0.696682Z" fill="#C32334"/>
</svg>
