<svg width="22" height="22" viewBox="0 0 22 22" fill="none" xmlns="http://www.w3.org/2000/svg">
<g clip-path="url(#clip0_109_2005)">
<path d="M0.439893 2.64001C0.294024 2.64001 0.154129 2.69796 0.0509839 2.80111C-0.0521612 2.90425 -0.110107 3.04415 -0.110107 3.19001V18.81C-0.110107 18.9559 -0.0521612 19.0958 0.0509839 19.1989C0.154129 19.3021 0.294024 19.36 0.439893 19.36H15.1535C14.9612 19.107 14.7694 18.8538 14.5762 18.601C14.336 18.2466 13.9871 17.9432 13.8848 17.5125C12.4702 18.0963 10.8448 18.1505 9.39323 17.6658C9.36133 17.6555 9.33009 17.6427 9.29841 17.6319C9.13187 17.7947 8.95235 18.0785 8.92397 18.26H6.83243C6.98951 17.7278 6.65599 16.8969 6.97147 16.3553C6.99655 16.3487 7.02691 16.3062 7.04077 16.2624C7.00513 16.229 6.96905 16.1964 6.93429 16.1623C6.62497 16.2565 6.50133 16.4895 6.32929 16.6938C6.42323 17.1391 5.74519 17.0337 5.81361 17.488C6.28595 17.8543 5.37757 17.5752 5.10741 17.6044C4.82075 17.6075 3.98211 17.3074 4.27317 17.9212C4.22763 18.0897 4.26965 18.1931 4.35347 18.26H4.22499C4.20497 18.0673 3.84197 18.0387 3.70205 17.9441C3.46643 17.8869 3.18505 17.8583 2.94107 17.7496C2.87837 17.9239 2.31253 18.1232 2.18867 18.26H0.989893V10.2232C1.15863 10.3363 1.53703 10.2914 1.02135 10.0472H0.989893V7.51411C1.08999 7.46351 1.16149 7.44745 1.15709 7.53216C1.40503 7.44855 1.51305 6.84509 1.94205 7.09215C2.20957 7.13154 2.65221 7.54623 2.42979 7.59815C2.60315 8.02143 2.72613 7.74885 2.93887 8.25331C2.79323 8.94323 3.35093 9.45451 3.65695 9.89429C4.02347 10.0465 4.16845 10.5204 4.76421 10.5389C4.84517 10.6097 4.94901 10.674 5.05725 10.7356C5.08695 10.5081 5.12897 10.2824 5.18199 10.0593C5.16769 10.056 5.15383 10.054 5.13843 10.049C4.56533 10.5776 4.44785 9.66242 5.00753 9.62655C5.04493 9.62414 5.08519 9.62612 5.12853 9.63206C5.19343 9.62436 5.24733 9.63205 5.29287 9.64812C5.47666 9.04558 5.74899 8.47371 6.10093 7.95125C6.28993 7.66923 6.50208 7.40343 6.73519 7.15661C6.61947 6.96301 6.50111 6.85499 6.36141 7.10777C6.35085 6.73267 5.33665 6.33953 6.08289 6.69945C6.47427 7.03672 6.60253 6.64093 6.66435 6.37077C6.99985 6.02097 6.32049 5.90151 6.44435 5.67293C6.23843 5.36427 5.93351 5.04813 5.62023 4.85695C5.01259 4.92735 4.79963 4.79909 5.61209 4.79865C5.68535 4.41915 5.80701 4.15031 5.89083 3.83087C5.80283 3.80557 5.71087 3.80953 5.62023 3.80931C5.23149 3.75717 5.00071 3.90743 5.00863 4.20421C4.71669 4.18089 4.97893 3.68325 4.52881 3.83527C3.84637 3.82449 4.67137 4.05505 4.60801 4.08827C4.52991 4.26339 4.03821 4.15427 4.09607 4.33181C3.87079 3.91513 3.76827 4.53047 3.59293 4.10895C3.48733 4.00775 4.03513 4.20883 3.91039 3.83989C3.63451 3.73429 3.53573 3.91909 3.32079 3.99455C2.67927 4.34963 3.43277 4.68359 3.75859 4.80195C4.24963 4.67105 4.24919 4.50561 4.59063 4.68755C4.97343 4.89985 4.20409 4.75069 4.22763 5.07739C4.18363 4.87433 4.12863 4.75179 3.89103 5.01205C3.57423 5.06925 3.43277 4.63387 3.19627 4.66445C2.65727 4.59119 2.85857 5.80339 3.30253 5.39067C3.57115 5.85553 2.95933 5.51255 2.77783 5.46063C2.36797 5.91845 1.92643 5.44875 1.43715 5.42983C1.28051 5.32555 1.12695 5.32423 0.989893 5.37725V3.74001H6.75895C6.34755 3.75123 5.98015 3.80557 6.12975 4.10147C6.10555 4.67215 6.84387 4.21895 6.95013 4.73507C7.25681 5.09565 6.76775 5.86235 7.29817 5.72771C7.10303 5.96509 7.12745 6.34327 7.27969 6.64138C7.84287 6.1687 8.48158 5.79416 9.16905 5.53345C9.18115 5.46569 9.17169 5.38781 9.13121 5.29585C9.06235 4.95068 9.38267 4.84045 9.27047 4.45765C9.42139 4.16945 9.30435 3.86453 9.04563 3.74001H21.0099V5.29717C20.9758 5.28255 20.9407 5.2702 20.905 5.26021C20.595 5.54115 20.8456 5.56777 21.0099 5.50463V5.75015C20.6434 5.54401 20.2408 5.52135 19.8498 5.60715C19.6723 5.29849 19.0438 5.30575 18.837 5.02789C18.4726 4.59141 18.9481 4.72165 19.266 4.68799C19.1758 4.41519 18.6346 4.28583 18.406 4.33093C17.993 4.55709 18.6229 4.75993 18.5593 5.06353C18.5593 5.28419 18.2903 5.28573 18.0555 5.27363C18.1503 5.03999 17.6061 4.75267 17.3902 4.94275C16.9817 4.81911 16.8259 4.89171 17.0954 4.46623C17.0013 4.13909 16.6121 4.13293 16.4376 3.90589C16.2148 4.37845 15.8432 4.23523 15.445 4.52299C15.2855 4.75619 14.9533 4.96563 14.9368 5.11963C14.69 5.23557 14.4429 4.64399 14.2698 5.16803C14.1127 5.61155 14.2786 5.82649 13.7486 5.46349C13.2001 4.87895 14.8503 4.37823 14.237 4.12941C13.7279 4.27791 13.4219 4.63673 13.3207 5.14647C13.2659 5.26241 13.2908 5.34315 13.3486 5.40849C15.2811 5.98489 16.8803 7.53897 17.5304 9.44549C17.5405 9.33065 17.5596 9.22021 17.5981 9.13947C17.7607 9.01539 17.6318 9.61577 17.9677 9.27433C17.7202 9.80563 18.5899 9.34474 18.7076 9.1254C18.5351 8.69244 19.328 8.4885 19.3095 8.40688C19.0176 8.10064 19.1835 8.40534 18.8614 8.47552C18.7547 8.3334 19.066 7.55415 18.6517 7.62565C18.0331 7.46637 19.178 7.01076 19.4871 7.1784C19.6279 6.65744 19.8303 7.07235 19.4824 7.31193C19.35 7.77416 19.4134 8.40468 19.803 7.78692C19.9781 7.61642 19.9345 7.17202 20.1625 7.09458C20.4687 6.95025 21.0152 6.8374 21.0009 6.39124C21.004 6.39036 21.0068 6.39057 21.0099 6.38991V18.26H20.1389C20.3277 17.9987 20.5774 17.5516 20.3129 17.3895C19.9145 17.3206 19.6169 16.8401 19.1353 16.8602C18.9179 16.6098 18.4174 16.4831 18.2828 16.4342C18.1481 16.3854 17.9145 16.6677 17.6751 16.5429C17.6031 16.5313 17.5296 16.5326 17.458 16.5469C18.1783 17.4819 18.8917 18.4219 19.6078 19.36H21.5599C21.7058 19.36 21.8457 19.3021 21.9488 19.1989C22.0519 19.0958 22.1099 18.9559 22.1099 18.81V3.19001C22.1099 3.04415 22.0519 2.90425 21.9488 2.80111C21.8457 2.69796 21.7058 2.64001 21.5599 2.64001H0.439893ZM11.1517 3.81041C10.7975 3.98487 11.4256 4.67941 11.443 4.01633C11.5079 4.11313 11.9433 4.21081 11.8009 3.89863C11.4846 3.71229 11.5325 3.92657 11.1515 3.81063L11.1517 3.81041ZM16.2295 3.81085C15.8474 3.99697 16.5639 4.00049 16.2295 3.81085V3.81085ZM4.08991 3.87399C3.80391 4.08651 4.50967 4.29683 4.12731 3.88521L4.08991 3.87399ZM6.43181 4.00005C6.50331 4.06869 6.36119 4.04427 6.43181 4.00005V4.00005ZM3.66949 4.27197C3.70315 4.31091 3.65189 4.27483 3.66949 4.27197V4.27197ZM4.64915 4.36261C4.99389 4.42245 4.62275 4.50341 4.64915 4.36261V4.36261ZM5.13205 4.40221C5.45985 4.38131 5.25239 4.48361 5.13205 4.40221V4.40221ZM4.16955 4.41673C4.38273 4.43873 4.14227 4.51551 4.16955 4.41673V4.41673ZM4.85199 4.72649C5.06759 4.77621 4.74595 4.79359 4.85199 4.72649V4.72649ZM5.00401 5.06947C4.87421 5.48351 5.46535 6.04407 5.00665 5.57217C4.88059 5.38341 4.81503 5.20257 5.00401 5.06947ZM4.23445 5.11127C4.42343 5.42697 4.71119 5.51123 4.47029 5.61991C4.31035 5.54247 4.27339 5.30113 4.23445 5.11105V5.11127ZM7.19983 5.42961C7.22645 5.44743 7.12811 5.43401 7.19983 5.42961V5.42961ZM2.73911 5.52927C2.71447 5.62915 2.70501 5.53081 2.73911 5.52927V5.52927ZM4.44279 5.69075C4.42739 5.89887 4.34225 5.68702 4.44279 5.69075V5.69075ZM5.70735 5.69207C5.62507 6.09907 5.95155 6.07311 5.92955 6.11403C5.65983 6.23284 5.72429 6.72212 5.51793 6.34877C5.38769 6.28805 5.58481 5.75081 5.67347 5.70373L5.70735 5.69207ZM4.38141 5.69251C4.41023 5.69911 4.37943 5.78777 4.38141 5.69251V5.69251ZM20.2953 5.72903C20.3041 5.74399 20.2571 5.76643 20.2953 5.72903V5.72903ZM4.39725 5.78227C4.54729 5.93936 4.19617 5.92528 4.39725 5.78227V5.78227ZM11.3884 5.99853C10.1887 6.00687 9.02425 6.40481 8.07037 7.13241C5.63057 8.99031 5.15581 12.4927 7.01371 14.9325C8.75281 17.2163 11.9285 17.7672 14.3287 16.3049L14.7872 16.907C14.697 17.1169 14.7054 17.3175 14.8103 17.4557L18.1367 21.8238C18.3347 22.0836 18.8128 22.0526 19.2044 21.7543C19.596 21.4562 19.7528 21.0036 19.555 20.7436L16.2286 16.3755C16.1235 16.2373 15.9323 16.1757 15.7059 16.207L15.2474 15.6051C17.2954 13.6801 17.6094 10.4725 15.8705 8.18864C14.9414 6.96874 13.6012 6.24054 12.1883 6.04913C11.9232 6.01325 11.6559 5.99634 11.3884 5.99853ZM5.14283 6.55029C5.28033 6.87677 5.81141 6.68515 5.60351 7.13021C5.83495 7.34801 5.56677 8.11582 5.47679 7.46153C4.90083 7.45867 4.62583 6.88404 5.10939 6.58241L5.14283 6.55029ZM5.64465 6.60441C5.82065 6.75401 5.36745 6.6878 5.64465 6.60441V6.60441ZM19.4668 7.00657C19.4822 6.99557 19.5205 7.07455 19.4668 7.00657V7.00657ZM11.61 7.23119C12.2484 7.25553 12.8735 7.4213 13.4401 7.71653C14.0067 8.01175 14.5007 8.42908 14.8864 8.9384C15.232 9.39021 15.4849 9.90584 15.6307 10.4557C15.7765 11.0055 15.8123 11.5787 15.736 12.1424C15.6596 12.7061 15.4727 13.2492 15.186 13.7404C14.8992 14.2317 14.5182 14.6615 14.0649 15.0051C13.6131 15.3507 13.0975 15.6037 12.5476 15.7495C11.9978 15.8953 11.4245 15.9311 10.8608 15.8548C10.2971 15.7784 9.754 15.5915 9.26272 15.3047C8.77144 15.018 8.34164 14.637 7.99799 14.1836C7.65242 13.7318 7.39949 13.2162 7.25372 12.6663C7.10795 12.1165 7.07221 11.5433 7.14856 10.9796C7.22491 10.4159 7.41184 9.87283 7.69862 9.38157C7.98539 8.89032 8.36638 8.46054 8.81969 8.11692C9.61815 7.50554 10.6051 7.19226 11.61 7.23119ZM20.0993 7.45779C19.7539 7.74357 20.514 7.69121 20.0993 7.45779V7.45779ZM20.5107 7.69583C20.1284 7.88261 20.8449 7.88283 20.5107 7.69583V7.69583ZM20.7598 7.78295C20.4188 8.06675 21.1074 7.91759 20.7598 7.78295V7.78295ZM20.7461 7.84456C20.765 7.84434 20.7345 7.86458 20.7461 7.84456V7.84456ZM20.7787 7.87998C20.789 7.8967 20.7512 7.8835 20.7787 7.87998V7.87998ZM11.4641 8.10922C10.9832 8.10064 10.5084 8.20821 10.0706 8.40137C10.0935 8.42932 10.1263 8.45616 10.1742 8.48036C9.73423 8.33736 9.60619 8.8933 9.79143 9.14344L10.0891 9.16786L10.3379 9.05829C10.4987 8.8911 10.5388 8.91992 10.5907 8.6667L10.6877 8.67923L10.7647 8.64712L10.9401 8.7338C11.1504 8.81608 11.1603 8.9934 11.0899 9.04532C10.9902 9.1067 11.1077 9.11572 11.1174 9.15378C11.1671 9.13948 11.1961 9.09657 11.2274 9.07369L11.2837 9.05346C11.4892 8.9186 11.3457 8.87415 11.203 8.69221L11.2786 8.71158C11.3893 8.83698 11.4544 8.97888 11.52 9.12958C11.5275 9.13552 11.5343 9.14321 11.5429 9.14585C11.5926 9.16235 11.6628 9.15686 11.7228 9.14036C11.7822 9.12408 11.7862 9.01078 11.7761 8.90232C11.8608 9.28864 12.6915 9.1738 12.1971 9.40942C11.9122 9.4158 11.4595 9.25959 11.3761 9.45693C11.1917 9.37333 11.0976 9.31855 11.0602 9.27565C10.9467 9.23298 10.62 9.10933 10.6083 9.10933C10.5944 9.10933 10.1786 9.18502 10.1786 9.18502L9.83543 9.31525C9.72389 9.67474 9.54789 9.48245 9.48805 9.7612C9.44119 9.93939 9.03793 10.3244 9.24913 10.6276C9.43767 11.5045 10.5309 10.9206 10.7856 11.3417C10.6659 11.6011 11.258 12.0945 10.9266 12.5193C11.0828 13.1364 11.5026 14.168 12.178 13.2898C12.3562 12.764 12.7399 12.4797 12.7262 11.9581C12.5223 11.4444 13.7228 11.0636 13.2426 10.6476C13.1275 10.6612 13.1143 10.6861 13.023 10.7164C12.8312 10.7092 12.7817 10.5545 12.7163 10.4573C12.6664 10.3863 12.6223 10.3115 12.5843 10.2335C12.7064 10.4227 12.8325 10.5833 13.0094 10.6821C13.3154 10.6135 13.6663 10.3871 13.8091 10.221C13.8056 9.57353 14.6759 10.2452 14.6583 10.7318C14.7122 10.863 14.7806 10.954 14.8492 11.0073C14.8004 10.6961 14.7076 10.3934 14.5734 10.1084C14.3294 9.57287 13.9387 9.11308 13.4639 8.769C13.4551 8.78264 13.4331 8.78352 13.4375 8.75052C13.3733 8.70505 13.3076 8.66168 13.2406 8.62049C13.2479 8.65107 13.2567 8.68209 13.2668 8.71355C13.238 8.67065 13.2076 8.62709 13.1825 8.58507C12.6642 8.27971 12.0698 8.1046 11.4643 8.109L11.4641 8.10922ZM18.6222 8.13826C18.7817 8.59278 18.0674 9.64613 17.9636 8.95467C18.0368 8.61279 18.6231 8.66449 18.6222 8.13847V8.13826ZM5.22973 8.25815C5.26185 8.25441 5.22467 8.27465 5.22973 8.25815V8.25815ZM5.56875 8.4181C5.63277 8.47133 5.49131 8.45814 5.56875 8.4181V8.4181ZM12.1749 8.43262C12.3525 8.58222 12.8972 8.78022 12.3206 8.62226C12.0205 8.75932 11.9276 8.67154 12.1749 8.43262ZM10.8026 8.69882C10.7638 8.7107 10.7966 8.791 10.7724 8.8163C10.9374 8.89704 10.845 8.73995 10.8694 8.71422C10.836 8.69838 10.8153 8.69464 10.8026 8.69882ZM13.3178 8.86271C13.3689 8.99538 13.4027 9.08008 13.2716 8.91552C13.2825 8.91025 13.2921 8.90286 13.3001 8.89379C13.308 8.88472 13.314 8.87416 13.3178 8.86271ZM10.818 8.87922C10.7533 8.87218 10.719 8.91551 10.7187 8.97602C10.8892 9.06863 10.8716 8.91573 10.8925 8.90408C10.8693 8.89127 10.844 8.88284 10.8177 8.87922H10.818ZM13.4522 9.82148C13.5495 9.82544 13.3592 9.96228 13.3917 9.82918C13.4188 9.82324 13.4384 9.82082 13.4522 9.82148ZM20.1537 10.6821C19.8369 11.0187 20.5312 11.0779 20.1537 10.6821V10.6821ZM20.1317 10.7345C20.1642 10.731 20.1257 10.7569 20.1317 10.7345V10.7345ZM20.1589 10.7827C20.162 10.8053 20.1259 10.7772 20.1589 10.7827V10.7827ZM20.3893 10.8267C20.0824 11.0937 20.7598 10.9965 20.3893 10.8267V10.8267ZM20.4223 10.9026C20.4456 10.8986 20.4179 10.9349 20.4223 10.9026V10.9026ZM20.3789 10.9142C20.3992 10.9415 20.3611 10.9296 20.3789 10.9142V10.9142ZM17.8716 11.2601C17.8771 11.3973 17.8782 11.5344 17.8751 11.6715C18.1275 11.7117 18.4436 11.7003 18.4495 11.9795C18.9019 11.999 18.4029 12.6597 18.3864 12.0481C18.2021 12.0215 18.0142 12.0534 17.8489 12.1392C17.803 12.6193 17.7048 13.0929 17.5559 13.5516C17.9255 13.4343 18.3026 13.4458 18.5252 13.805C19.1115 13.8028 18.6128 14.2026 19.0284 14.2842C19.2055 13.9225 18.9351 13.968 19.2673 13.6732C19.5896 13.2612 19.3786 12.729 19.0572 12.5039C18.9903 12.2492 18.7239 12.1115 18.8493 11.9377C19.0935 12.2688 19.4395 12.0208 19.1507 11.8417C19.3639 11.6426 20.1255 12.3548 19.6978 11.807C19.4866 11.7678 19.1964 11.3311 19.1307 11.6123C19.1117 11.8455 18.5298 11.2583 18.3151 11.4985C18.2531 11.2821 17.9495 11.4127 17.9323 11.5093C18.0256 11.3641 17.9669 11.2891 17.8716 11.2601ZM18.991 11.4482C18.6757 11.6272 19.2756 11.6211 18.991 11.4482V11.4482ZM10.7553 11.4636C10.7806 11.5208 10.748 11.473 10.7553 11.4636V11.4636ZM7.99359 11.4904C7.98706 11.7959 8.02102 12.1009 8.09457 12.3975C8.34757 12.0142 8.33767 11.6543 7.99359 11.4904ZM18.9747 11.501C18.9936 11.5146 18.9514 11.5062 18.9747 11.501V11.501ZM19.1879 11.5274C19.2906 11.6 19.0849 11.6 19.1879 11.5274V11.5274ZM19.1879 11.5296C19.0941 11.5969 19.2814 11.5969 19.1879 11.5296V11.5296ZM18.9958 11.5487C18.9993 11.5709 18.9632 11.5447 18.9958 11.5487V11.5487ZM17.8734 11.7876C17.8712 11.8404 17.8665 11.8932 17.863 11.946C17.9341 11.8659 17.9649 11.7832 17.8734 11.7876ZM12.8589 12.0158C12.6046 12.1555 13.131 12.2193 12.911 12.0554L12.9016 12.0318L12.8589 12.0158ZM13.1563 12.0549C12.9051 12.212 12.5153 12.9609 13.0558 12.9844C13.186 12.8295 13.5163 12.139 13.1563 12.0549ZM19.9711 12.5319C19.7698 12.929 20.5556 12.7701 19.9711 12.5319V12.5319ZM13.5589 12.5847C13.232 12.804 13.876 12.7763 13.5589 12.5847V12.5847ZM20.4958 13.4902C20.6819 13.9115 20.0646 14.1638 20.1112 14.555C20.428 14.7077 20.5915 14.133 20.8145 13.9573C21.0783 13.7267 20.6069 13.6585 20.4958 13.4902ZM5.86399 14.786C5.90007 15.0179 6.00875 15.2423 6.20279 15.3107C6.08147 15.1414 5.9684 14.9663 5.86399 14.786Z" fill="#C32334"/>
</g>
<defs>
<clipPath id="clip0_109_2005">
<rect width="22" height="22" fill="white"/>
</clipPath>
</defs>
</svg>
