<svg width="20" height="20" viewBox="0 0 20 20" fill="none" xmlns="http://www.w3.org/2000/svg">
<path d="M13.75 7.5C14.0815 7.5 14.3995 7.3683 14.6339 7.13388C14.8683 6.89946 15 6.58152 15 6.25C15 5.91848 14.8683 5.60054 14.6339 5.36612C14.3995 5.1317 14.0815 5 13.75 5C13.4185 5 13.1005 5.1317 12.8661 5.36612C12.6317 5.60054 12.5 5.91848 12.5 6.25C12.5 6.58152 12.6317 6.89946 12.8661 7.13388C13.1005 7.3683 13.4185 7.5 13.75 7.5Z" fill="#828282"/>
<path d="M9.375 15V14.375H10.625C10.7908 14.375 10.9497 14.3092 11.0669 14.1919C11.1842 14.0747 11.25 13.9158 11.25 13.75V12.5H12.5C13.5499 12.4998 14.5731 12.169 15.4245 11.5547C16.2759 10.9403 16.9124 10.0735 17.2436 9.07722C17.5747 8.08091 17.5839 7.00562 17.2697 6.00381C16.9556 5.002 16.334 4.12451 15.4932 3.49575C14.6523 2.86699 13.6349 2.51887 12.5851 2.50075C11.5354 2.48262 10.5066 2.79541 9.64452 3.39477C8.78249 3.99413 8.13101 4.84965 7.78244 5.84001C7.43387 6.83038 7.4059 7.90535 7.7025 8.9125L2.865 13.75C2.63102 13.9846 2.49974 14.3024 2.5 14.6337V16.25C2.5 16.5815 2.6317 16.8995 2.86612 17.1339C3.10054 17.3683 3.41848 17.5 3.75 17.5H6.25C6.58152 17.5 6.89946 17.3683 7.13388 17.1339C7.3683 16.8995 7.5 16.5815 7.5 16.25V15.625H8.75C8.91576 15.625 9.07473 15.5592 9.19194 15.4419C9.30915 15.3247 9.375 15.1658 9.375 15ZM8.75 7.5C8.75 6.75832 8.96993 6.0333 9.38199 5.41661C9.79404 4.79993 10.3797 4.31928 11.0649 4.03545C11.7502 3.75162 12.5042 3.67736 13.2316 3.82206C13.959 3.96675 14.6272 4.3239 15.1517 4.84835C15.6761 5.3728 16.0333 6.04098 16.1779 6.76841C16.3226 7.49584 16.2484 8.24984 15.9645 8.93506C15.6807 9.62029 15.2001 10.206 14.5834 10.618C13.9667 11.0301 13.2417 11.25 12.5 11.25H10.625C10.4592 11.25 10.3003 11.3158 10.1831 11.4331C10.0658 11.5503 10 11.7092 10 11.875V13.125H8.75C8.58424 13.125 8.42527 13.1908 8.30806 13.3081C8.19085 13.4253 8.125 13.5842 8.125 13.75V14.375H6.875C6.70924 14.375 6.55027 14.4408 6.43306 14.5581C6.31585 14.6753 6.25 14.8342 6.25 15V16.25H3.75V14.6337L8.86125 9.5225C8.94695 9.43689 9.00592 9.32823 9.03099 9.20973C9.05607 9.09122 9.04617 8.96798 9.0025 8.855C8.84 8.435 8.75 7.98 8.75 7.5Z" fill="#828282"/>
</svg>
