<svg width="20" height="20" viewBox="0 0 20 20" fill="none" xmlns="http://www.w3.org/2000/svg">
<path d="M1.66663 10L5.83329 13.3334V10.8334H13.3333V9.16669H5.83329V6.66669L1.66663 10Z" fill="#828282"/>
<path d="M10.8342 2.49917C9.84882 2.49644 8.87268 2.68927 7.96234 3.06648C7.052 3.44369 6.22555 3.99779 5.53088 4.69667L6.70922 5.87501C7.81088 4.77334 9.27588 4.16584 10.8342 4.16584C12.3926 4.16584 13.8576 4.77334 14.9592 5.87501C16.0609 6.97667 16.6684 8.44167 16.6684 10C16.6684 11.5583 16.0609 13.0233 14.9592 14.125C13.8576 15.2267 12.3926 15.8342 10.8342 15.8342C9.27588 15.8342 7.81088 15.2267 6.70922 14.125L5.53088 15.3033C6.94672 16.72 8.83005 17.5008 10.8342 17.5008C12.8384 17.5008 14.7217 16.72 16.1376 15.3033C17.5542 13.8875 18.3351 12.0042 18.3351 10C18.3351 7.99584 17.5542 6.11251 16.1376 4.69667C15.4429 3.99779 14.6164 3.44369 13.7061 3.06648C12.7958 2.68927 11.8196 2.49644 10.8342 2.49917Z" fill="#828282"/>
</svg>
