<svg width="17" height="18" viewBox="0 0 17 18" fill="none" xmlns="http://www.w3.org/2000/svg">
<path d="M15.9241 9.42384C16.264 8.99025 16.4522 8.459 16.4522 7.90626C16.4522 7.02931 15.9443 6.19923 15.1269 5.73634C14.9165 5.61719 14.6769 5.55448 14.433 5.5547H9.58116L9.70256 3.15431C9.73089 2.57423 9.51844 2.02345 9.1057 1.60353C8.90314 1.39655 8.65876 1.23188 8.38767 1.11967C8.11658 1.00747 7.82453 0.950127 7.52957 0.951186C6.47748 0.951186 5.54677 1.63478 5.26756 2.6133L3.52958 8.68751H3.52351V17.0469H13.0794C13.2655 17.0469 13.4476 17.0117 13.6156 16.9414C14.5786 16.5449 15.1998 15.6367 15.1998 14.6289C15.1998 14.3828 15.1634 14.1406 15.0905 13.9063C15.4304 13.4727 15.6186 12.9414 15.6186 12.3887C15.6186 12.1426 15.5822 11.9004 15.5093 11.666C15.8492 11.2324 16.0374 10.7012 16.0374 10.1485C16.0334 9.90236 15.9969 9.65822 15.9241 9.42384V9.42384ZM0.266052 9.31251V16.4219C0.266052 16.7676 0.555379 17.0469 0.913497 17.0469H2.22862V8.68751H0.913497C0.555379 8.68751 0.266052 8.96681 0.266052 9.31251Z" fill="#BCBCBC"/>
</svg>
