<svg width="15" height="15" viewBox="0 0 15 15" fill="none" xmlns="http://www.w3.org/2000/svg">
<path d="M7.5 13.125C6.71059 12.4516 5.97887 11.7134 5.3125 10.9181C4.3125 9.72375 3.125 7.945 3.125 6.25C3.12457 5.38435 3.38094 4.53802 3.86168 3.81814C4.34242 3.09825 5.02592 2.53716 5.82567 2.20587C6.62542 1.87458 7.50547 1.78799 8.35445 1.95705C9.20343 2.12612 9.98317 2.54324 10.595 3.15562C11.0023 3.56116 11.3252 4.04346 11.5449 4.5746C11.7646 5.10575 11.8768 5.6752 11.875 6.25C11.875 7.945 10.6875 9.72375 9.6875 10.9181C9.02113 11.7134 8.28941 12.4516 7.5 13.125ZM7.5 4.375C7.00272 4.375 6.52581 4.57254 6.17418 4.92417C5.82254 5.2758 5.625 5.75272 5.625 6.25C5.625 6.74728 5.82254 7.22419 6.17418 7.57582C6.52581 7.92745 7.00272 8.125 7.5 8.125C7.99728 8.125 8.4742 7.92745 8.82583 7.57582C9.17746 7.22419 9.375 6.74728 9.375 6.25C9.375 5.75272 9.17746 5.2758 8.82583 4.92417C8.4742 4.57254 7.99728 4.375 7.5 4.375Z" fill="#EC8177"/>
</svg>
