<svg width="20" height="20" viewBox="0 0 20 20" fill="none" xmlns="http://www.w3.org/2000/svg">
<path d="M10.0001 12.5C11.3834 12.5 12.4917 11.3833 12.4917 10L12.5001 5C12.5001 3.61667 11.3834 2.5 10.0001 2.5C8.61675 2.5 7.50008 3.61667 7.50008 5V10C7.50008 11.3833 8.61675 12.5 10.0001 12.5ZM9.00008 4.91667C9.00008 4.36667 9.45008 3.91667 10.0001 3.91667C10.5501 3.91667 11.0001 4.36667 11.0001 4.91667L10.9917 10.0833C10.9917 10.6333 10.5501 11.0833 10.0001 11.0833C9.45008 11.0833 9.00008 10.6333 9.00008 10.0833V4.91667ZM14.4167 10C14.4167 12.5 12.3001 14.25 10.0001 14.25C7.70008 14.25 5.58341 12.5 5.58341 10H4.16675C4.16675 12.8417 6.43341 15.1917 9.16675 15.6V18.3333H10.8334V15.6C13.5667 15.2 15.8334 12.85 15.8334 10H14.4167Z" fill="#9B9B9B"/>
</svg>
