<svg width="22" height="22" viewBox="0 0 22 22" fill="none" xmlns="http://www.w3.org/2000/svg">
<path d="M1.83325 6.41665C1.83325 5.93042 2.02641 5.4641 2.37022 5.12028C2.71404 4.77647 3.18036 4.58331 3.66659 4.58331H18.3333C18.8195 4.58331 19.2858 4.77647 19.6296 5.12028C19.9734 5.4641 20.1666 5.93042 20.1666 6.41665V15.5833C20.1666 16.0695 19.9734 16.5359 19.6296 16.8797C19.2858 17.2235 18.8195 17.4166 18.3333 17.4166H3.66659C3.18036 17.4166 2.71404 17.2235 2.37022 16.8797C2.02641 16.5359 1.83325 16.0695 1.83325 15.5833V6.41665Z" stroke="#C32334" stroke-width="2" stroke-linecap="round" stroke-linejoin="round"/>
<path d="M11 13.75C12.5188 13.75 13.75 12.5188 13.75 11C13.75 9.48122 12.5188 8.25 11 8.25C9.48122 8.25 8.25 9.48122 8.25 11C8.25 12.5188 9.48122 13.75 11 13.75Z" stroke="#C32334" stroke-width="2" stroke-linecap="round" stroke-linejoin="round"/>
<path d="M16.4999 17.4166C16.4999 16.4442 16.8862 15.5116 17.5739 14.8239C18.2615 14.1363 19.1941 13.75 20.1666 13.75M1.83325 8.24998C2.80571 8.24998 3.73834 7.86367 4.42598 7.17604C5.11361 6.4884 5.49992 5.55577 5.49992 4.58331L1.83325 8.24998Z" stroke="#C32334" stroke-width="2" stroke-linecap="round" stroke-linejoin="round"/>
</svg>
