<svg width="24" height="24" viewBox="0 0 24 24" fill="none" xmlns="http://www.w3.org/2000/svg">
<path d="M14.004 10.2444C13.9089 10.2438 13.8175 10.2808 13.7496 10.3473C13.6817 10.4139 13.6429 10.5046 13.6416 10.5997V13.2541C13.6429 13.3493 13.6818 13.4402 13.75 13.5068C13.8182 13.5734 13.9099 13.6102 14.0052 13.6093H22.0008C22.0961 13.6102 22.1878 13.5734 22.256 13.5068C22.3242 13.4402 22.3631 13.3493 22.3644 13.2541V10.5997C22.3631 10.5044 22.3242 10.4135 22.256 10.3469C22.1878 10.2803 22.0961 10.2435 22.0008 10.2444H14.0052H14.004ZM18.9072 1.80125C20.0136 1.85405 20.8092 2.07245 21.3132 2.53565C21.8112 2.99405 22.0668 3.65765 22.1172 4.53605V7.05245C22.1147 7.26675 22.0272 7.47129 21.874 7.62113C21.7207 7.77098 21.5143 7.85389 21.3 7.85165C21.1938 7.85292 21.0884 7.83325 20.9897 7.79377C20.8911 7.75429 20.8013 7.69578 20.7253 7.62156C20.6493 7.54735 20.5886 7.45889 20.5468 7.36124C20.505 7.26359 20.4829 7.15866 20.4816 7.05245L20.4828 4.58165C20.4564 4.12565 20.3472 3.84245 20.1912 3.69845C20.04 3.55925 19.5792 3.43445 18.8676 3.39845H3.1764C2.532 3.42245 2.1132 3.54485 1.9104 3.71885C1.7544 3.85205 1.6368 4.21925 1.6356 4.85405L1.632 18.9781C1.692 19.5949 1.8276 20.0065 2.0016 20.2117C2.1336 20.3677 2.5428 20.5237 3.1452 20.6005H18.8844C19.6212 20.6149 20.0556 20.5045 20.202 20.3569C20.364 20.1925 20.4816 19.7605 20.4816 19.0537V16.5997C20.4816 16.1593 20.8476 15.8005 21.3 15.8005C21.7512 15.8005 22.1172 16.1593 22.1172 16.5997V19.0537C22.1172 20.1337 21.8964 20.9413 21.3792 21.4657C20.8464 22.0057 19.9992 22.2217 18.8676 22.1977L3.048 22.1941C1.9716 22.0693 1.2 21.7741 0.7404 21.2305C0.324 20.7385 0.0924 20.0365 0 19.0549V4.85285C0.0024 3.80165 0.2544 3.01085 0.8328 2.51645C1.3632 2.06045 2.1288 1.83845 3.1452 1.80005H18.9072V1.80125ZM22.0008 8.64605C23.1048 8.64605 24 9.52085 24 10.5997V13.2541C24 14.3329 23.1048 15.2077 22.0008 15.2077H14.0052C12.9012 15.2077 12.006 14.3317 12.006 13.2541V10.5997C12.006 9.52085 12.9012 8.64605 14.0052 8.64605H22.0008ZM16.0044 10.9741C15.4524 10.9741 15.0048 11.406 15.0048 11.9376C15.0048 12.4705 15.4524 12.9013 16.0044 12.9013C16.5564 12.9013 17.004 12.4693 17.004 11.9376C17.004 11.4049 16.5564 10.9728 16.0044 10.9728V10.9741Z" fill="#C32334"/>
</svg>
