<svg width="15" height="15" viewBox="0 0 15 15" fill="none" xmlns="http://www.w3.org/2000/svg">
<path d="M13.3022 5.17237L9.58295 4.63184L7.92035 1.26124C7.87494 1.16895 7.80023 1.09424 7.70794 1.04883C7.4765 0.934576 7.19525 1.02979 7.07952 1.26124L5.41692 4.63184L1.69768 5.17237C1.59514 5.18702 1.50139 5.23536 1.42962 5.3086C1.34284 5.39779 1.29502 5.51778 1.29667 5.64221C1.29832 5.76663 1.3493 5.88532 1.4384 5.97218L4.12933 8.59571L3.49358 12.3003C3.47867 12.3865 3.48821 12.4751 3.52111 12.5561C3.55401 12.6372 3.60896 12.7074 3.67972 12.7588C3.75048 12.8102 3.83423 12.8407 3.92146 12.8469C4.0087 12.8531 4.09593 12.8348 4.17327 12.794L7.49994 11.0449L10.8266 12.794C10.9174 12.8423 11.0229 12.8584 11.124 12.8408C11.3788 12.7969 11.5502 12.5552 11.5063 12.3003L10.8705 8.59571L13.5615 5.97218C13.6347 5.9004 13.683 5.80665 13.6977 5.70411C13.7372 5.44776 13.5585 5.21046 13.3022 5.17237Z" fill="#FFC300"/>
</svg>
