<svg width="20" height="20" viewBox="0 0 20 20" fill="none" xmlns="http://www.w3.org/2000/svg">
<path d="M5.87996 2.01496L6.85246 1.72246C7.3852 1.56182 7.95819 1.60049 8.46452 1.83126C8.97084 2.06204 9.37591 2.46915 9.60413 2.97663L10.3558 4.6483C10.552 5.0848 10.6067 5.57178 10.5121 6.04091C10.4174 6.51004 10.1783 6.93779 9.82829 7.26413L8.58329 8.42496C8.5469 8.45888 8.52384 8.5047 8.51829 8.55413C8.48163 8.88496 8.70579 9.52913 9.22246 10.425C9.59829 11.0758 9.93913 11.5333 10.2283 11.7891C10.43 11.9683 10.5408 12.0066 10.5883 11.9933L12.2633 11.4808C12.7207 11.3409 13.2105 11.3476 13.6639 11.5C14.1173 11.6525 14.5116 11.943 14.7916 12.3308L15.8591 13.8108C16.1838 14.2609 16.334 14.8134 16.2821 15.3659C16.2301 15.9184 15.9795 16.4333 15.5766 16.815L14.8383 17.515C14.4464 17.8861 13.9651 18.1493 13.4413 18.2792C12.9175 18.409 12.3689 18.4009 11.8491 18.2558C9.55413 17.615 7.49663 15.6783 5.65329 12.4858C3.80746 9.28913 3.15996 6.5358 3.75663 4.22496C3.89094 3.70524 4.15686 3.22888 4.52877 2.8418C4.90068 2.45471 5.36602 2.16995 5.87996 2.01496ZM6.24079 3.21246C5.93252 3.30534 5.65336 3.47604 5.43019 3.7081C5.20703 3.94017 5.04738 4.2258 4.96663 4.53746C4.46496 6.4808 5.03913 8.92163 6.73579 11.8608C8.42996 14.7958 10.2541 16.5125 12.1858 17.0525C12.4976 17.1393 12.8265 17.144 13.1406 17.066C13.4547 16.988 13.7433 16.83 13.9783 16.6075L14.7175 15.9075C14.9006 15.734 15.0146 15.4999 15.0382 15.2487C15.0618 14.9975 14.9934 14.7462 14.8458 14.5416L13.7791 13.0625C13.6518 12.886 13.4725 12.7538 13.2662 12.6844C13.06 12.6151 12.8372 12.6121 12.6291 12.6758L10.95 13.19C9.97496 13.48 9.08996 12.6958 8.13996 11.05C7.49996 9.94163 7.20163 9.0833 7.27579 8.4158C7.31496 8.06913 7.47579 7.74913 7.73079 7.5108L8.97579 6.34996C9.13498 6.20164 9.24372 6.0072 9.28677 5.79392C9.32981 5.58065 9.30499 5.35925 9.21579 5.1608L8.46413 3.48913C8.36039 3.25864 8.17639 3.07372 7.94641 2.96885C7.71643 2.86398 7.45617 2.84631 7.21413 2.91913L6.24079 3.21246Z" fill="#828282"/>
</svg>
